<svg xmlns="http://www.w3.org/2000/svg" width="2697" height="744" viewBox="0 0 2697 744">
  <defs>
    <linearGradient id="graphic-velocirender-bg-a" x1="26.859%" x2="46.317%" y1="17.575%" y2="112.985%">
      <stop offset="0%" stop-color="#EBEBEB"/>
      <stop offset="100%" stop-color="#D7D7D7"/>
    </linearGradient>
  </defs>
  <g fill="none" fill-rule="evenodd">
    <path fill="url(#graphic-velocirender-bg-a)" stroke="#FFF" stroke-width="2" d="M1027.5,14 L1047.5,14 C1051.08985,14 1054,16.9101491 1054,20.5 C1054,24.0898509 1051.08985,27 1047.5,27 L1027.5,27 C1023.91015,27 1021,24.0898509 1021,20.5 C1021,16.9101491 1023.91015,14 1027.5,14 Z M1103.5,14 L1124.5,14 C1128.08985,14 1131,16.9101491 1131,20.5 C1131,24.0898509 1128.08985,27 1124.5,27 L1103.5,27 C1099.91015,27 1097,24.0898509 1097,20.5 C1097,16.9101491 1099.91015,14 1103.5,14 Z M995.5,32 L1138.5,32 C1142.08985,32 1145,34.9101491 1145,38.5 C1145,42.0898509 1142.08985,45 1138.5,45 L995.5,45 C991.910149,45 989,42.0898509 989,38.5 C989,34.9101491 991.910149,32 995.5,32 Z M978.5,52 L1112.5,52 C1116.08985,52 1119,54.9101491 1119,58.5 C1119,62.0898509 1116.08985,65 1112.5,65 L978.5,65 C974.910149,65 972,62.0898509 972,58.5 C972,54.9101491 974.910149,52 978.5,52 Z M966.5,70 L1055.5,70 C1059.08985,70 1062,72.9101491 1062,76.5 C1062,80.0898509 1059.08985,83 1055.5,83 L966.5,83 C962.910149,83 960,80.0898509 960,76.5 C960,72.9101491 962.910149,70 966.5,70 Z M573.5,70 L707.5,70 C711.089851,70 714,72.9101491 714,76.5 C714,80.0898509 711.089851,83 707.5,83 L573.5,83 C569.910149,83 567,80.0898509 567,76.5 C567,72.9101491 569.910149,70 573.5,70 Z M958.5,90 L1071.5,90 C1075.08985,90 1078,92.9101491 1078,96.5 C1078,100.089851 1075.08985,103 1071.5,103 L958.5,103 C954.910149,103 952,100.089851 952,96.5 C952,92.9101491 954.910149,90 958.5,90 Z M528.5,90 L818.5,90 C822.089851,90 825,92.9101491 825,96.5 C825,100.089851 822.089851,103 818.5,103 L528.5,103 C524.910149,103 522,100.089851 522,96.5 C522,92.9101491 524.910149,90 528.5,90 Z M951.5,109 L1094.5,109 C1098.08985,109 1101,111.910149 1101,115.5 C1101,119.089851 1098.08985,122 1094.5,122 L951.5,122 C947.910149,122 945,119.089851 945,115.5 C945,111.910149 947.910149,109 951.5,109 Z M475.5,109 L862.5,109 C866.089851,109 869,111.910149 869,115.5 C869,119.089851 866.089851,122 862.5,122 L475.5,122 C471.910149,122 469,119.089851 469,115.5 C469,111.910149 471.910149,109 475.5,109 Z M632.5,166 L983.5,166 C987.089851,166 990,168.910149 990,172.5 C990,176.089851 987.089851,179 983.5,179 L632.5,179 C628.910149,179 626,176.089851 626,172.5 C626,168.910149 628.910149,166 632.5,166 Z M241.5,166 L413.5,166 C417.089851,166 420,168.910149 420,172.5 C420,176.089851 417.089851,179 413.5,179 L241.5,179 C237.910149,179 235,176.089851 235,172.5 C235,168.910149 237.910149,166 241.5,166 Z M311.5,185 L365.5,185 C369.089851,185 372,187.910149 372,191.5 C372,195.089851 369.089851,198 365.5,198 L311.5,198 C307.910149,198 305,195.089851 305,191.5 C305,187.910149 307.910149,185 311.5,185 Z M216.5,144 L237.5,144 C241.089851,144 244,146.910149 244,150.5 C244,154.089851 241.089851,157 237.5,157 L216.5,157 C212.910149,157 210,154.089851 210,150.5 C210,146.910149 212.910149,144 216.5,144 Z M193.5,124 L202.5,124 C206.089851,124 209,126.910149 209,130.5 C209,134.089851 206.089851,137 202.5,137 L193.5,137 C189.910149,137 187,134.089851 187,130.5 C187,126.910149 189.910149,124 193.5,124 Z M642.5,185 L953.5,185 C957.089851,185 960,187.910149 960,191.5 C960,195.089851 957.089851,198 953.5,198 L642.5,198 C638.910149,198 636,195.089851 636,191.5 C636,187.910149 638.910149,185 642.5,185 Z M650.5,204 L930.5,204 C934.089851,204 937,206.910149 937,210.5 C937,214.089851 934.089851,217 930.5,217 L650.5,217 C646.910149,217 644,214.089851 644,210.5 C644,206.910149 646.910149,204 650.5,204 Z M646.5,223 L899.5,223 C903.089851,223 906,225.910149 906,229.5 C906,233.089851 903.089851,236 899.5,236 L646.5,236 C642.910149,236 640,233.089851 640,229.5 C640,225.910149 642.910149,223 646.5,223 Z M951.5,204 L976.5,204 C980.089851,204 983,206.910149 983,210.5 C983,214.089851 980.089851,217 976.5,217 L951.5,217 C947.910149,217 945,214.089851 945,210.5 C945,206.910149 947.910149,204 951.5,204 Z M1046.5,185 L1067.5,185 C1071.08985,185 1074,187.910149 1074,191.5 C1074,195.089851 1071.08985,198 1067.5,198 L1046.5,198 C1042.91015,198 1040,195.089851 1040,191.5 C1040,187.910149 1042.91015,185 1046.5,185 Z M881.5,242 L906.5,242 C910.089851,242 913,244.910149 913,248.5 C913,252.089851 910.089851,255 906.5,255 L881.5,255 C877.910149,255 875,252.089851 875,248.5 C875,244.910149 877.910149,242 881.5,242 Z M620.5,242 L775.5,242 C779.089851,242 782,244.910149 782,248.5 C782,252.089851 779.089851,255 775.5,255 L620.5,255 C616.910149,255 614,252.089851 614,248.5 C614,244.910149 616.910149,242 620.5,242 Z M721.5,261 L742.5,261 C746.089851,261 749,263.910149 749,267.5 C749,271.089851 746.089851,274 742.5,274 L721.5,274 C717.910149,274 715,271.089851 715,267.5 C715,263.910149 717.910149,261 721.5,261 Z M578.5,261 L683.5,261 C687.089851,261 690,263.910149 690,267.5 C690,271.089851 687.089851,274 683.5,274 L578.5,274 C574.910149,274 572,271.089851 572,267.5 C572,263.910149 574.910149,261 578.5,261 Z M544.5,281 L667.5,281 C671.089851,281 674,283.910149 674,287.5 C674,291.089851 671.089851,294 667.5,294 L544.5,294 C540.910149,294 538,291.089851 538,287.5 C538,283.910149 540.910149,281 544.5,281 Z M500.5,299 L634.5,299 C638.089851,299 641,301.910149 641,305.5 C641,309.089851 638.089851,312 634.5,312 L500.5,312 C496.910149,312 494,309.089851 494,305.5 C494,301.910149 496.910149,299 500.5,299 Z M481.5,319 L506.5,319 C510.089851,319 513,321.910149 513,325.5 C513,329.089851 510.089851,332 506.5,332 L481.5,332 C477.910149,332 475,329.089851 475,325.5 C475,321.910149 477.910149,319 481.5,319 Z M464.5,337 L493.5,337 C497.089851,337 500,339.910149 500,343.5 C500,347.089851 497.089851,350 493.5,350 L464.5,350 C460.910149,350 458,347.089851 458,343.5 C458,339.910149 460.910149,337 464.5,337 Z M443.5,357 L476.5,357 C480.089851,357 483,359.910149 483,363.5 C483,367.089851 480.089851,370 476.5,370 L443.5,370 C439.910149,370 437,367.089851 437,363.5 C437,359.910149 439.910149,357 443.5,357 Z M431.5,375 L456.5,375 C460.089851,375 463,377.910149 463,381.5 C463,385.089851 460.089851,388 456.5,388 L431.5,388 C427.910149,388 425,385.089851 425,381.5 C425,377.910149 427.910149,375 431.5,375 Z M439.5,395 L477.5,395 C481.089851,395 484,397.910149 484,401.5 C484,405.089851 481.089851,408 477.5,408 L439.5,408 C435.910149,408 433,405.089851 433,401.5 C433,397.910149 435.910149,395 439.5,395 Z M171.5,369 L333.5,369 C337.089851,369 340,371.910149 340,375.5 C340,379.089851 337.089851,382 333.5,382 L171.5,382 C167.910149,382 165,379.089851 165,375.5 C165,371.910149 167.910149,369 171.5,369 Z M24.5,392 L241.5,392 C245.089851,392 248,394.910149 248,398.5 C248,402.089851 245.089851,405 241.5,405 L24.5,405 C20.9101491,405 18,402.089851 18,398.5 C18,394.910149 20.9101491,392 24.5,392 Z M464.5,413 L485.5,413 C489.089851,413 492,415.910149 492,419.5 C492,423.089851 489.089851,426 485.5,426 L464.5,426 C460.910149,426 458,423.089851 458,419.5 C458,415.910149 460.910149,413 464.5,413 Z M510.5,413 L519.5,413 C523.089851,413 526,415.910149 526,419.5 C526,423.089851 523.089851,426 519.5,426 L510.5,426 C506.910149,426 504,423.089851 504,419.5 C504,415.910149 506.910149,413 510.5,413 Z M479.5,433 L508.5,433 C512.089851,433 515,435.910149 515,439.5 C515,443.089851 512.089851,446 508.5,446 L479.5,446 C475.910149,446 473,443.089851 473,439.5 C473,435.910149 475.910149,433 479.5,433 Z M738.5,281 L759.5,281 C763.089851,281 766,283.910149 766,287.5 C766,291.089851 763.089851,294 759.5,294 L738.5,294 C734.910149,294 732,291.089851 732,287.5 C732,283.910149 734.910149,281 738.5,281 Z M773.5,319 L786.5,319 C790.089851,319 793,321.910149 793,325.5 C793,329.089851 790.089851,332 786.5,332 L773.5,332 C769.910149,332 767,329.089851 767,325.5 C767,321.910149 769.910149,319 773.5,319 Z M755.5,299 L788.5,299 C792.089851,299 795,301.910149 795,305.5 C795,309.089851 792.089851,312 788.5,312 L755.5,312 C751.910149,312 749,309.089851 749,305.5 C749,301.910149 751.910149,299 755.5,299 Z M768.5,337 L777.5,337 C781.089851,337 784,339.910149 784,343.5 C784,347.089851 781.089851,350 777.5,350 L768.5,350 C764.910149,350 762,347.089851 762,343.5 C762,339.910149 764.910149,337 768.5,337 Z M891.5,261 L916.5,261 C920.089851,261 923,263.910149 923,267.5 C923,271.089851 920.089851,274 916.5,274 L891.5,274 C887.910149,274 885,271.089851 885,267.5 C885,263.910149 887.910149,261 891.5,261 Z M905.5,281 L972.5,281 C976.089851,281 979,283.910149 979,287.5 C979,291.089851 976.089851,294 972.5,294 L905.5,294 C901.910149,294 899,291.089851 899,287.5 C899,283.910149 901.910149,281 905.5,281 Z M966.5,223 L1033.5,223 C1037.08985,223 1040,225.910149 1040,229.5 C1040,233.089851 1037.08985,236 1033.5,236 L966.5,236 C962.910149,236 960,233.089851 960,229.5 C960,225.910149 962.910149,223 966.5,223 Z M970.5,261 L979.5,261 C983.089851,261 986,263.910149 986,267.5 C986,271.089851 983.089851,274 979.5,274 L970.5,274 C966.910149,274 964,271.089851 964,267.5 C964,263.910149 966.910149,261 970.5,261 Z M983.5,242 L992.5,242 C996.089851,242 999,244.910149 999,248.5 C999,252.089851 996.089851,255 992.5,255 L983.5,255 C979.910149,255 977,252.089851 977,248.5 C977,244.910149 979.910149,242 983.5,242 Z M999.5,261 L1008.5,261 C1012.08985,261 1015,263.910149 1015,267.5 C1015,271.089851 1012.08985,274 1008.5,274 L999.5,274 C995.910149,274 993,271.089851 993,267.5 C993,263.910149 995.910149,261 999.5,261 Z M785.5,354 L788.5,354 C792.089851,354 795,356.910149 795,360.5 C795,364.089851 792.089851,367 788.5,367 L785.5,367 C781.910149,367 779,364.089851 779,360.5 C779,356.910149 781.910149,354 785.5,354 Z M1021.5,204 L1046.5,204 C1050.08985,204 1053,206.910149 1053,210.5 C1053,214.089851 1050.08985,217 1046.5,217 L1021.5,217 C1017.91015,217 1015,214.089851 1015,210.5 C1015,206.910149 1017.91015,204 1021.5,204 Z M1067.5,204 L1080.5,204 C1084.08985,204 1087,206.910149 1087,210.5 C1087,214.089851 1084.08985,217 1080.5,217 L1067.5,217 C1063.91015,217 1061,214.089851 1061,210.5 C1061,206.910149 1063.91015,204 1067.5,204 Z M435.5,128 L1015.5,128 C1019.08985,128 1022,130.910149 1022,134.5 C1022,138.089851 1019.08985,141 1015.5,141 L435.5,141 C431.910149,141 429,138.089851 429,134.5 C429,130.910149 431.910149,128 435.5,128 Z M607.5,147 L1003.5,147 C1007.08985,147 1010,149.910149 1010,153.5 C1010,157.089851 1007.08985,160 1003.5,160 L607.5,160 C603.910149,160 601,157.089851 601,153.5 C601,149.910149 603.910149,147 607.5,147 Z M391.5,147 L525.5,147 C529.089851,147 532,149.910149 532,153.5 C532,157.089851 529.089851,160 525.5,160 L391.5,160 C387.910149,160 385,157.089851 385,153.5 C385,149.910149 387.910149,147 391.5,147 Z M1086.5,128 L1111.5,128 C1115.08985,128 1118,130.910149 1118,134.5 C1118,138.089851 1115.08985,141 1111.5,141 L1086.5,141 C1082.91015,141 1080,138.089851 1080,134.5 C1080,130.910149 1082.91015,128 1086.5,128 Z M1115.5,147 L1128.5,147 C1132.08985,147 1135,149.910149 1135,153.5 C1135,157.089851 1132.08985,160 1128.5,160 L1115.5,160 C1111.91015,160 1109,157.089851 1109,153.5 C1109,149.910149 1111.91015,147 1115.5,147 Z" opacity=".514"/>
    <path fill="url(#graphic-velocirender-bg-a)" stroke="#FFF" stroke-width="2" d="M2562.5,279 L2582.5,279 C2586.08985,279 2589,281.910149 2589,285.5 C2589,289.089851 2586.08985,292 2582.5,292 L2562.5,292 C2558.91015,292 2556,289.089851 2556,285.5 C2556,281.910149 2558.91015,279 2562.5,279 Z M2638.5,279 L2659.5,279 C2663.08985,279 2666,281.910149 2666,285.5 C2666,289.089851 2663.08985,292 2659.5,292 L2638.5,292 C2634.91015,292 2632,289.089851 2632,285.5 C2632,281.910149 2634.91015,279 2638.5,279 Z M2530.5,297 L2673.5,297 C2677.08985,297 2680,299.910149 2680,303.5 C2680,307.089851 2677.08985,310 2673.5,310 L2530.5,310 C2526.91015,310 2524,307.089851 2524,303.5 C2524,299.910149 2526.91015,297 2530.5,297 Z M2513.5,317 L2647.5,317 C2651.08985,317 2654,319.910149 2654,323.5 C2654,327.089851 2651.08985,330 2647.5,330 L2513.5,330 C2509.91015,330 2507,327.089851 2507,323.5 C2507,319.910149 2509.91015,317 2513.5,317 Z M2501.5,335 L2590.5,335 C2594.08985,335 2597,337.910149 2597,341.5 C2597,345.089851 2594.08985,348 2590.5,348 L2501.5,348 C2497.91015,348 2495,345.089851 2495,341.5 C2495,337.910149 2497.91015,335 2501.5,335 Z M2108.5,335 L2242.5,335 C2246.08985,335 2249,337.910149 2249,341.5 C2249,345.089851 2246.08985,348 2242.5,348 L2108.5,348 C2104.91015,348 2102,345.089851 2102,341.5 C2102,337.910149 2104.91015,335 2108.5,335 Z M2493.5,355 L2606.5,355 C2610.08985,355 2613,357.910149 2613,361.5 C2613,365.089851 2610.08985,368 2606.5,368 L2493.5,368 C2489.91015,368 2487,365.089851 2487,361.5 C2487,357.910149 2489.91015,355 2493.5,355 Z M2063.5,355 L2353.5,355 C2357.08985,355 2360,357.910149 2360,361.5 C2360,365.089851 2357.08985,368 2353.5,368 L2063.5,368 C2059.91015,368 2057,365.089851 2057,361.5 C2057,357.910149 2059.91015,355 2063.5,355 Z M2486.5,374 L2629.5,374 C2633.08985,374 2636,376.910149 2636,380.5 C2636,384.089851 2633.08985,387 2629.5,387 L2486.5,387 C2482.91015,387 2480,384.089851 2480,380.5 C2480,376.910149 2482.91015,374 2486.5,374 Z M2010.5,374 L2397.5,374 C2401.08985,374 2404,376.910149 2404,380.5 C2404,384.089851 2401.08985,387 2397.5,387 L2010.5,387 C2006.91015,387 2004,384.089851 2004,380.5 C2004,376.910149 2006.91015,374 2010.5,374 Z M2167.5,431 L2518.5,431 C2522.08985,431 2525,433.910149 2525,437.5 C2525,441.089851 2522.08985,444 2518.5,444 L2167.5,444 C2163.91015,444 2161,441.089851 2161,437.5 C2161,433.910149 2163.91015,431 2167.5,431 Z M1776.5,431 L1948.5,431 C1952.08985,431 1955,433.910149 1955,437.5 C1955,441.089851 1952.08985,444 1948.5,444 L1776.5,444 C1772.91015,444 1770,441.089851 1770,437.5 C1770,433.910149 1772.91015,431 1776.5,431 Z M1846.5,450 L1900.5,450 C1904.08985,450 1907,452.910149 1907,456.5 C1907,460.089851 1904.08985,463 1900.5,463 L1846.5,463 C1842.91015,463 1840,460.089851 1840,456.5 C1840,452.910149 1842.91015,450 1846.5,450 Z M1751.5,409 L1772.5,409 C1776.08985,409 1779,411.910149 1779,415.5 C1779,419.089851 1776.08985,422 1772.5,422 L1751.5,422 C1747.91015,422 1745,419.089851 1745,415.5 C1745,411.910149 1747.91015,409 1751.5,409 Z M1728.5,389 L1737.5,389 C1741.08985,389 1744,391.910149 1744,395.5 C1744,399.089851 1741.08985,402 1737.5,402 L1728.5,402 C1724.91015,402 1722,399.089851 1722,395.5 C1722,391.910149 1724.91015,389 1728.5,389 Z M2177.5,450 L2488.5,450 C2492.08985,450 2495,452.910149 2495,456.5 C2495,460.089851 2492.08985,463 2488.5,463 L2177.5,463 C2173.91015,463 2171,460.089851 2171,456.5 C2171,452.910149 2173.91015,450 2177.5,450 Z M2185.5,469 L2465.5,469 C2469.08985,469 2472,471.910149 2472,475.5 C2472,479.089851 2469.08985,482 2465.5,482 L2185.5,482 C2181.91015,482 2179,479.089851 2179,475.5 C2179,471.910149 2181.91015,469 2185.5,469 Z M2181.5,488 L2434.5,488 C2438.08985,488 2441,490.910149 2441,494.5 C2441,498.089851 2438.08985,501 2434.5,501 L2181.5,501 C2177.91015,501 2175,498.089851 2175,494.5 C2175,490.910149 2177.91015,488 2181.5,488 Z M2486.5,469 L2511.5,469 C2515.08985,469 2518,471.910149 2518,475.5 C2518,479.089851 2515.08985,482 2511.5,482 L2486.5,482 C2482.91015,482 2480,479.089851 2480,475.5 C2480,471.910149 2482.91015,469 2486.5,469 Z M2581.5,450 L2602.5,450 C2606.08985,450 2609,452.910149 2609,456.5 C2609,460.089851 2606.08985,463 2602.5,463 L2581.5,463 C2577.91015,463 2575,460.089851 2575,456.5 C2575,452.910149 2577.91015,450 2581.5,450 Z M2416.5,507 L2441.5,507 C2445.08985,507 2448,509.910149 2448,513.5 C2448,517.089851 2445.08985,520 2441.5,520 L2416.5,520 C2412.91015,520 2410,517.089851 2410,513.5 C2410,509.910149 2412.91015,507 2416.5,507 Z M2155.5,507 L2310.5,507 C2314.08985,507 2317,509.910149 2317,513.5 C2317,517.089851 2314.08985,520 2310.5,520 L2155.5,520 C2151.91015,520 2149,517.089851 2149,513.5 C2149,509.910149 2151.91015,507 2155.5,507 Z M2256.5,526 L2277.5,526 C2281.08985,526 2284,528.910149 2284,532.5 C2284,536.089851 2281.08985,539 2277.5,539 L2256.5,539 C2252.91015,539 2250,536.089851 2250,532.5 C2250,528.910149 2252.91015,526 2256.5,526 Z M2113.5,526 L2218.5,526 C2222.08985,526 2225,528.910149 2225,532.5 C2225,536.089851 2222.08985,539 2218.5,539 L2113.5,539 C2109.91015,539 2107,536.089851 2107,532.5 C2107,528.910149 2109.91015,526 2113.5,526 Z M2079.5,546 L2202.5,546 C2206.08985,546 2209,548.910149 2209,552.5 C2209,556.089851 2206.08985,559 2202.5,559 L2079.5,559 C2075.91015,559 2073,556.089851 2073,552.5 C2073,548.910149 2075.91015,546 2079.5,546 Z M2035.5,564 L2169.5,564 C2173.08985,564 2176,566.910149 2176,570.5 C2176,574.089851 2173.08985,577 2169.5,577 L2035.5,577 C2031.91015,577 2029,574.089851 2029,570.5 C2029,566.910149 2031.91015,564 2035.5,564 Z M2016.5,584 L2041.5,584 C2045.08985,584 2048,586.910149 2048,590.5 C2048,594.089851 2045.08985,597 2041.5,597 L2016.5,597 C2012.91015,597 2010,594.089851 2010,590.5 C2010,586.910149 2012.91015,584 2016.5,584 Z M1999.5,602 L2028.5,602 C2032.08985,602 2035,604.910149 2035,608.5 C2035,612.089851 2032.08985,615 2028.5,615 L1999.5,615 C1995.91015,615 1993,612.089851 1993,608.5 C1993,604.910149 1995.91015,602 1999.5,602 Z M1978.5,622 L2011.5,622 C2015.08985,622 2018,624.910149 2018,628.5 C2018,632.089851 2015.08985,635 2011.5,635 L1978.5,635 C1974.91015,635 1972,632.089851 1972,628.5 C1972,624.910149 1974.91015,622 1978.5,622 Z M1966.5,640 L1991.5,640 C1995.08985,640 1998,642.910149 1998,646.5 C1998,650.089851 1995.08985,653 1991.5,653 L1966.5,653 C1962.91015,653 1960,650.089851 1960,646.5 C1960,642.910149 1962.91015,640 1966.5,640 Z M1974.5,660 L2012.5,660 C2016.08985,660 2019,662.910149 2019,666.5 C2019,670.089851 2016.08985,673 2012.5,673 L1974.5,673 C1970.91015,673 1968,670.089851 1968,666.5 C1968,662.910149 1970.91015,660 1974.5,660 Z M1706.5,634 L1868.5,634 C1872.08985,634 1875,636.910149 1875,640.5 C1875,644.089851 1872.08985,647 1868.5,647 L1706.5,647 C1702.91015,647 1700,644.089851 1700,640.5 C1700,636.910149 1702.91015,634 1706.5,634 Z M2873.5,655 L2903.5,655 C2907.08985,655 2910,657.910149 2910,661.5 C2910,665.089851 2907.08985,668 2903.5,668 L2873.5,668 C2869.91015,668 2867,665.089851 2867,661.5 C2867,657.910149 2869.91015,655 2873.5,655 Z M1559.5,657 L1776.5,657 C1780.08985,657 1783,659.910149 1783,663.5 C1783,667.089851 1780.08985,670 1776.5,670 L1559.5,670 C1555.91015,670 1553,667.089851 1553,663.5 C1553,659.910149 1555.91015,657 1559.5,657 Z M2836.5,678 L2881.5,678 C2885.08985,678 2888,680.910149 2888,684.5 C2888,688.089851 2885.08985,691 2881.5,691 L2836.5,691 C2832.91015,691 2830,688.089851 2830,684.5 C2830,680.910149 2832.91015,678 2836.5,678 Z M1999.5,678 L2020.5,678 C2024.08985,678 2027,680.910149 2027,684.5 C2027,688.089851 2024.08985,691 2020.5,691 L1999.5,691 C1995.91015,691 1993,688.089851 1993,684.5 C1993,680.910149 1995.91015,678 1999.5,678 Z M2045.5,678 L2054.5,678 C2058.08985,678 2061,680.910149 2061,684.5 C2061,688.089851 2058.08985,691 2054.5,691 L2045.5,691 C2041.91015,691 2039,688.089851 2039,684.5 C2039,680.910149 2041.91015,678 2045.5,678 Z M2014.5,698 L2043.5,698 C2047.08985,698 2050,700.910149 2050,704.5 C2050,708.089851 2047.08985,711 2043.5,711 L2014.5,711 C2010.91015,711 2008,708.089851 2008,704.5 C2008,700.910149 2010.91015,698 2014.5,698 Z M2273.5,546 L2294.5,546 C2298.08985,546 2301,548.910149 2301,552.5 C2301,556.089851 2298.08985,559 2294.5,559 L2273.5,559 C2269.91015,559 2267,556.089851 2267,552.5 C2267,548.910149 2269.91015,546 2273.5,546 Z M2308.5,584 L2321.5,584 C2325.08985,584 2328,586.910149 2328,590.5 C2328,594.089851 2325.08985,597 2321.5,597 L2308.5,597 C2304.91015,597 2302,594.089851 2302,590.5 C2302,586.910149 2304.91015,584 2308.5,584 Z M2290.5,564 L2323.5,564 C2327.08985,564 2330,566.910149 2330,570.5 C2330,574.089851 2327.08985,577 2323.5,577 L2290.5,577 C2286.91015,577 2284,574.089851 2284,570.5 C2284,566.910149 2286.91015,564 2290.5,564 Z M2303.5,602 L2312.5,602 C2316.08985,602 2319,604.910149 2319,608.5 C2319,612.089851 2316.08985,615 2312.5,615 L2303.5,615 C2299.91015,615 2297,612.089851 2297,608.5 C2297,604.910149 2299.91015,602 2303.5,602 Z M2426.5,526 L2451.5,526 C2455.08985,526 2458,528.910149 2458,532.5 C2458,536.089851 2455.08985,539 2451.5,539 L2426.5,539 C2422.91015,539 2420,536.089851 2420,532.5 C2420,528.910149 2422.91015,526 2426.5,526 Z M2440.5,546 L2507.5,546 C2511.08985,546 2514,548.910149 2514,552.5 C2514,556.089851 2511.08985,559 2507.5,559 L2440.5,559 C2436.91015,559 2434,556.089851 2434,552.5 C2434,548.910149 2436.91015,546 2440.5,546 Z M2501.5,488 L2568.5,488 C2572.08985,488 2575,490.910149 2575,494.5 C2575,498.089851 2572.08985,501 2568.5,501 L2501.5,501 C2497.91015,501 2495,498.089851 2495,494.5 C2495,490.910149 2497.91015,488 2501.5,488 Z M2505.5,526 L2514.5,526 C2518.08985,526 2521,528.910149 2521,532.5 C2521,536.089851 2518.08985,539 2514.5,539 L2505.5,539 C2501.91015,539 2499,536.089851 2499,532.5 C2499,528.910149 2501.91015,526 2505.5,526 Z M2518.5,507 L2527.5,507 C2531.08985,507 2534,509.910149 2534,513.5 C2534,517.089851 2531.08985,520 2527.5,520 L2518.5,520 C2514.91015,520 2512,517.089851 2512,513.5 C2512,509.910149 2514.91015,507 2518.5,507 Z M2534.5,526 L2543.5,526 C2547.08985,526 2550,528.910149 2550,532.5 C2550,536.089851 2547.08985,539 2543.5,539 L2534.5,539 C2530.91015,539 2528,536.089851 2528,532.5 C2528,528.910149 2530.91015,526 2534.5,526 Z M2320.5,619 L2323.5,619 C2327.08985,619 2330,621.910149 2330,625.5 C2330,629.089851 2327.08985,632 2323.5,632 L2320.5,632 C2316.91015,632 2314,629.089851 2314,625.5 C2314,621.910149 2316.91015,619 2320.5,619 Z M2556.5,469 L2581.5,469 C2585.08985,469 2588,471.910149 2588,475.5 C2588,479.089851 2585.08985,482 2581.5,482 L2556.5,482 C2552.91015,482 2550,479.089851 2550,475.5 C2550,471.910149 2552.91015,469 2556.5,469 Z M2602.5,469 L2615.5,469 C2619.08985,469 2622,471.910149 2622,475.5 C2622,479.089851 2619.08985,482 2615.5,482 L2602.5,482 C2598.91015,482 2596,479.089851 2596,475.5 C2596,471.910149 2598.91015,469 2602.5,469 Z M1970.5,393 L2550.5,393 C2554.08985,393 2557,395.910149 2557,399.5 C2557,403.089851 2554.08985,406 2550.5,406 L1970.5,406 C1966.91015,406 1964,403.089851 1964,399.5 C1964,395.910149 1966.91015,393 1970.5,393 Z M2142.5,412 L2538.5,412 C2542.08985,412 2545,414.910149 2545,418.5 C2545,422.089851 2542.08985,425 2538.5,425 L2142.5,425 C2138.91015,425 2136,422.089851 2136,418.5 C2136,414.910149 2138.91015,412 2142.5,412 Z M1926.5,412 L2060.5,412 C2064.08985,412 2067,414.910149 2067,418.5 C2067,422.089851 2064.08985,425 2060.5,425 L1926.5,425 C1922.91015,425 1920,422.089851 1920,418.5 C1920,414.910149 1922.91015,412 1926.5,412 Z M2621.5,393 L2646.5,393 C2650.08985,393 2653,395.910149 2653,399.5 C2653,403.089851 2650.08985,406 2646.5,406 L2621.5,406 C2617.91015,406 2615,403.089851 2615,399.5 C2615,395.910149 2617.91015,393 2621.5,393 Z M2650.5,412 L2663.5,412 C2667.08985,412 2670,414.910149 2670,418.5 C2670,422.089851 2667.08985,425 2663.5,425 L2650.5,425 C2646.91015,425 2644,422.089851 2644,418.5 C2644,414.910149 2646.91015,412 2650.5,412 Z" opacity=".494"/>
  </g>
</svg>
