<svg xmlns="http://www.w3.org/2000/svg" width="412" height="355" viewBox="0 0 412 355">
  <defs>
    <linearGradient id="graphic-velocirender-bg-a" x1="26.859%" x2="46.317%" y1="17.575%" y2="112.985%">
      <stop offset="0%" stop-color="#EBEBEB"/>
      <stop offset="100%" stop-color="#D7D7D7"/>
    </linearGradient>
  </defs>
  <path fill="url(#graphic-velocirender-bg-a)" fill-rule="evenodd" stroke="#FFF" stroke-width="2" d="M293.5,1678 L313.5,1678 C317.089851,1678 320,1680.91015 320,1684.5 C320,1688.08985 317.089851,1691 313.5,1691 L293.5,1691 C289.910149,1691 287,1688.08985 287,1684.5 C287,1680.91015 289.910149,1678 293.5,1678 Z M369.5,1678 L390.5,1678 C394.089851,1678 397,1680.91015 397,1684.5 C397,1688.08985 394.089851,1691 390.5,1691 L369.5,1691 C365.910149,1691 363,1688.08985 363,1684.5 C363,1680.91015 365.910149,1678 369.5,1678 Z M261.5,1696 L404.5,1696 C408.089851,1696 411,1698.91015 411,1702.5 C411,1706.08985 408.089851,1709 404.5,1709 L261.5,1709 C257.910149,1709 255,1706.08985 255,1702.5 C255,1698.91015 257.910149,1696 261.5,1696 Z M244.5,1716 L378.5,1716 C382.089851,1716 385,1718.91015 385,1722.5 C385,1726.08985 382.089851,1729 378.5,1729 L244.5,1729 C240.910149,1729 238,1726.08985 238,1722.5 C238,1718.91015 240.910149,1716 244.5,1716 Z M232.5,1734 L321.5,1734 C325.089851,1734 328,1736.91015 328,1740.5 C328,1744.08985 325.089851,1747 321.5,1747 L232.5,1747 C228.910149,1747 226,1744.08985 226,1740.5 C226,1736.91015 228.910149,1734 232.5,1734 Z M-160.5,1734 L-26.5,1734 C-22.9101491,1734 -20,1736.91015 -20,1740.5 C-20,1744.08985 -22.9101491,1747 -26.5,1747 L-160.5,1747 C-164.089851,1747 -167,1744.08985 -167,1740.5 C-167,1736.91015 -164.089851,1734 -160.5,1734 Z M224.5,1754 L337.5,1754 C341.089851,1754 344,1756.91015 344,1760.5 C344,1764.08985 341.089851,1767 337.5,1767 L224.5,1767 C220.910149,1767 218,1764.08985 218,1760.5 C218,1756.91015 220.910149,1754 224.5,1754 Z M-205.5,1754 L84.5,1754 C88.0898509,1754 91,1756.91015 91,1760.5 C91,1764.08985 88.0898509,1767 84.5,1767 L-205.5,1767 C-209.089851,1767 -212,1764.08985 -212,1760.5 C-212,1756.91015 -209.089851,1754 -205.5,1754 Z M217.5,1773 L360.5,1773 C364.089851,1773 367,1775.91015 367,1779.5 C367,1783.08985 364.089851,1786 360.5,1786 L217.5,1786 C213.910149,1786 211,1783.08985 211,1779.5 C211,1775.91015 213.910149,1773 217.5,1773 Z M-258.5,1773 L128.5,1773 C132.089851,1773 135,1775.91015 135,1779.5 C135,1783.08985 132.089851,1786 128.5,1786 L-258.5,1786 C-262.089851,1786 -265,1783.08985 -265,1779.5 C-265,1775.91015 -262.089851,1773 -258.5,1773 Z M-101.5,1830 L249.5,1830 C253.089851,1830 256,1832.91015 256,1836.5 C256,1840.08985 253.089851,1843 249.5,1843 L-101.5,1843 C-105.089851,1843 -108,1840.08985 -108,1836.5 C-108,1832.91015 -105.089851,1830 -101.5,1830 Z M-492.5,1830 L-320.5,1830 C-316.910149,1830 -314,1832.91015 -314,1836.5 C-314,1840.08985 -316.910149,1843 -320.5,1843 L-492.5,1843 C-496.089851,1843 -499,1840.08985 -499,1836.5 C-499,1832.91015 -496.089851,1830 -492.5,1830 Z M-422.5,1849 L-368.5,1849 C-364.910149,1849 -362,1851.91015 -362,1855.5 C-362,1859.08985 -364.910149,1862 -368.5,1862 L-422.5,1862 C-426.089851,1862 -429,1859.08985 -429,1855.5 C-429,1851.91015 -426.089851,1849 -422.5,1849 Z M-517.5,1808 L-496.5,1808 C-492.910149,1808 -490,1810.91015 -490,1814.5 C-490,1818.08985 -492.910149,1821 -496.5,1821 L-517.5,1821 C-521.089851,1821 -524,1818.08985 -524,1814.5 C-524,1810.91015 -521.089851,1808 -517.5,1808 Z M-540.5,1788 L-531.5,1788 C-527.910149,1788 -525,1790.91015 -525,1794.5 C-525,1798.08985 -527.910149,1801 -531.5,1801 L-540.5,1801 C-544.089851,1801 -547,1798.08985 -547,1794.5 C-547,1790.91015 -544.089851,1788 -540.5,1788 Z M-91.5,1849 L219.5,1849 C223.089851,1849 226,1851.91015 226,1855.5 C226,1859.08985 223.089851,1862 219.5,1862 L-91.5,1862 C-95.0898509,1862 -98,1859.08985 -98,1855.5 C-98,1851.91015 -95.0898509,1849 -91.5,1849 Z M-83.5,1868 L196.5,1868 C200.089851,1868 203,1870.91015 203,1874.5 C203,1878.08985 200.089851,1881 196.5,1881 L-83.5,1881 C-87.0898509,1881 -90,1878.08985 -90,1874.5 C-90,1870.91015 -87.0898509,1868 -83.5,1868 Z M-87.5,1887 L165.5,1887 C169.089851,1887 172,1889.91015 172,1893.5 C172,1897.08985 169.089851,1900 165.5,1900 L-87.5,1900 C-91.0898509,1900 -94,1897.08985 -94,1893.5 C-94,1889.91015 -91.0898509,1887 -87.5,1887 Z M217.5,1868 L242.5,1868 C246.089851,1868 249,1870.91015 249,1874.5 C249,1878.08985 246.089851,1881 242.5,1881 L217.5,1881 C213.910149,1881 211,1878.08985 211,1874.5 C211,1870.91015 213.910149,1868 217.5,1868 Z M312.5,1849 L333.5,1849 C337.089851,1849 340,1851.91015 340,1855.5 C340,1859.08985 337.089851,1862 333.5,1862 L312.5,1862 C308.910149,1862 306,1859.08985 306,1855.5 C306,1851.91015 308.910149,1849 312.5,1849 Z M147.5,1906 L172.5,1906 C176.089851,1906 179,1908.91015 179,1912.5 C179,1916.08985 176.089851,1919 172.5,1919 L147.5,1919 C143.910149,1919 141,1916.08985 141,1912.5 C141,1908.91015 143.910149,1906 147.5,1906 Z M-113.5,1906 L41.5,1906 C45.0898509,1906 48,1908.91015 48,1912.5 C48,1916.08985 45.0898509,1919 41.5,1919 L-113.5,1919 C-117.089851,1919 -120,1916.08985 -120,1912.5 C-120,1908.91015 -117.089851,1906 -113.5,1906 Z M-12.5,1925 L8.5,1925 C12.0898509,1925 15,1927.91015 15,1931.5 C15,1935.08985 12.0898509,1938 8.5,1938 L-12.5,1938 C-16.0898509,1938 -19,1935.08985 -19,1931.5 C-19,1927.91015 -16.0898509,1925 -12.5,1925 Z M-155.5,1925 L-50.5,1925 C-46.9101491,1925 -44,1927.91015 -44,1931.5 C-44,1935.08985 -46.9101491,1938 -50.5,1938 L-155.5,1938 C-159.089851,1938 -162,1935.08985 -162,1931.5 C-162,1927.91015 -159.089851,1925 -155.5,1925 Z M-189.5,1945 L-66.5,1945 C-62.9101491,1945 -60,1947.91015 -60,1951.5 C-60,1955.08985 -62.9101491,1958 -66.5,1958 L-189.5,1958 C-193.089851,1958 -196,1955.08985 -196,1951.5 C-196,1947.91015 -193.089851,1945 -189.5,1945 Z M-233.5,1963 L-99.5,1963 C-95.9101491,1963 -93,1965.91015 -93,1969.5 C-93,1973.08985 -95.9101491,1976 -99.5,1976 L-233.5,1976 C-237.089851,1976 -240,1973.08985 -240,1969.5 C-240,1965.91015 -237.089851,1963 -233.5,1963 Z M-252.5,1983 L-227.5,1983 C-223.910149,1983 -221,1985.91015 -221,1989.5 C-221,1993.08985 -223.910149,1996 -227.5,1996 L-252.5,1996 C-256.089851,1996 -259,1993.08985 -259,1989.5 C-259,1985.91015 -256.089851,1983 -252.5,1983 Z M-269.5,2001 L-240.5,2001 C-236.910149,2001 -234,2003.91015 -234,2007.5 C-234,2011.08985 -236.910149,2014 -240.5,2014 L-269.5,2014 C-273.089851,2014 -276,2011.08985 -276,2007.5 C-276,2003.91015 -273.089851,2001 -269.5,2001 Z M-290.5,2021 L-257.5,2021 C-253.910149,2021 -251,2023.91015 -251,2027.5 C-251,2031.08985 -253.910149,2034 -257.5,2034 L-290.5,2034 C-294.089851,2034 -297,2031.08985 -297,2027.5 C-297,2023.91015 -294.089851,2021 -290.5,2021 Z M-302.5,2039 L-277.5,2039 C-273.910149,2039 -271,2041.91015 -271,2045.5 C-271,2049.08985 -273.910149,2052 -277.5,2052 L-302.5,2052 C-306.089851,2052 -309,2049.08985 -309,2045.5 C-309,2041.91015 -306.089851,2039 -302.5,2039 Z M-294.5,2059 L-256.5,2059 C-252.910149,2059 -250,2061.91015 -250,2065.5 C-250,2069.08985 -252.910149,2072 -256.5,2072 L-294.5,2072 C-298.089851,2072 -301,2069.08985 -301,2065.5 C-301,2061.91015 -298.089851,2059 -294.5,2059 Z M-562.5,2033 L-400.5,2033 C-396.910149,2033 -394,2035.91015 -394,2039.5 C-394,2043.08985 -396.910149,2046 -400.5,2046 L-562.5,2046 C-566.089851,2046 -569,2043.08985 -569,2039.5 C-569,2035.91015 -566.089851,2033 -562.5,2033 Z M-709.5,2056 L-492.5,2056 C-488.910149,2056 -486,2058.91015 -486,2062.5 C-486,2066.08985 -488.910149,2069 -492.5,2069 L-709.5,2069 C-713.089851,2069 -716,2066.08985 -716,2062.5 C-716,2058.91015 -713.089851,2056 -709.5,2056 Z M-269.5,2077 L-248.5,2077 C-244.910149,2077 -242,2079.91015 -242,2083.5 C-242,2087.08985 -244.910149,2090 -248.5,2090 L-269.5,2090 C-273.089851,2090 -276,2087.08985 -276,2083.5 C-276,2079.91015 -273.089851,2077 -269.5,2077 Z M-223.5,2077 L-214.5,2077 C-210.910149,2077 -208,2079.91015 -208,2083.5 C-208,2087.08985 -210.910149,2090 -214.5,2090 L-223.5,2090 C-227.089851,2090 -230,2087.08985 -230,2083.5 C-230,2079.91015 -227.089851,2077 -223.5,2077 Z M-254.5,2097 L-225.5,2097 C-221.910149,2097 -219,2099.91015 -219,2103.5 C-219,2107.08985 -221.910149,2110 -225.5,2110 L-254.5,2110 C-258.089851,2110 -261,2107.08985 -261,2103.5 C-261,2099.91015 -258.089851,2097 -254.5,2097 Z M4.5,1945 L25.5,1945 C29.0898509,1945 32,1947.91015 32,1951.5 C32,1955.08985 29.0898509,1958 25.5,1958 L4.5,1958 C0.910149126,1958 -2,1955.08985 -2,1951.5 C-2,1947.91015 0.910149126,1945 4.5,1945 Z M39.5,1983 L52.5,1983 C56.0898509,1983 59,1985.91015 59,1989.5 C59,1993.08985 56.0898509,1996 52.5,1996 L39.5,1996 C35.9101491,1996 33,1993.08985 33,1989.5 C33,1985.91015 35.9101491,1983 39.5,1983 Z M21.5,1963 L54.5,1963 C58.0898509,1963 61,1965.91015 61,1969.5 C61,1973.08985 58.0898509,1976 54.5,1976 L21.5,1976 C17.9101491,1976 15,1973.08985 15,1969.5 C15,1965.91015 17.9101491,1963 21.5,1963 Z M34.5,2001 L43.5,2001 C47.0898509,2001 50,2003.91015 50,2007.5 C50,2011.08985 47.0898509,2014 43.5,2014 L34.5,2014 C30.9101491,2014 28,2011.08985 28,2007.5 C28,2003.91015 30.9101491,2001 34.5,2001 Z M157.5,1925 L182.5,1925 C186.089851,1925 189,1927.91015 189,1931.5 C189,1935.08985 186.089851,1938 182.5,1938 L157.5,1938 C153.910149,1938 151,1935.08985 151,1931.5 C151,1927.91015 153.910149,1925 157.5,1925 Z M171.5,1945 L238.5,1945 C242.089851,1945 245,1947.91015 245,1951.5 C245,1955.08985 242.089851,1958 238.5,1958 L171.5,1958 C167.910149,1958 165,1955.08985 165,1951.5 C165,1947.91015 167.910149,1945 171.5,1945 Z M232.5,1887 L299.5,1887 C303.089851,1887 306,1889.91015 306,1893.5 C306,1897.08985 303.089851,1900 299.5,1900 L232.5,1900 C228.910149,1900 226,1897.08985 226,1893.5 C226,1889.91015 228.910149,1887 232.5,1887 Z M236.5,1925 L245.5,1925 C249.089851,1925 252,1927.91015 252,1931.5 C252,1935.08985 249.089851,1938 245.5,1938 L236.5,1938 C232.910149,1938 230,1935.08985 230,1931.5 C230,1927.91015 232.910149,1925 236.5,1925 Z M249.5,1906 L258.5,1906 C262.089851,1906 265,1908.91015 265,1912.5 C265,1916.08985 262.089851,1919 258.5,1919 L249.5,1919 C245.910149,1919 243,1916.08985 243,1912.5 C243,1908.91015 245.910149,1906 249.5,1906 Z M265.5,1925 L274.5,1925 C278.089851,1925 281,1927.91015 281,1931.5 C281,1935.08985 278.089851,1938 274.5,1938 L265.5,1938 C261.910149,1938 259,1935.08985 259,1931.5 C259,1927.91015 261.910149,1925 265.5,1925 Z M51.5,2018 L54.5,2018 C58.0898509,2018 61,2020.91015 61,2024.5 C61,2028.08985 58.0898509,2031 54.5,2031 L51.5,2031 C47.9101491,2031 45,2028.08985 45,2024.5 C45,2020.91015 47.9101491,2018 51.5,2018 Z M287.5,1868 L312.5,1868 C316.089851,1868 319,1870.91015 319,1874.5 C319,1878.08985 316.089851,1881 312.5,1881 L287.5,1881 C283.910149,1881 281,1878.08985 281,1874.5 C281,1870.91015 283.910149,1868 287.5,1868 Z M333.5,1868 L346.5,1868 C350.089851,1868 353,1870.91015 353,1874.5 C353,1878.08985 350.089851,1881 346.5,1881 L333.5,1881 C329.910149,1881 327,1878.08985 327,1874.5 C327,1870.91015 329.910149,1868 333.5,1868 Z M-298.5,1792 L281.5,1792 C285.089851,1792 288,1794.91015 288,1798.5 C288,1802.08985 285.089851,1805 281.5,1805 L-298.5,1805 C-302.089851,1805 -305,1802.08985 -305,1798.5 C-305,1794.91015 -302.089851,1792 -298.5,1792 Z M-126.5,1811 L269.5,1811 C273.089851,1811 276,1813.91015 276,1817.5 C276,1821.08985 273.089851,1824 269.5,1824 L-126.5,1824 C-130.089851,1824 -133,1821.08985 -133,1817.5 C-133,1813.91015 -130.089851,1811 -126.5,1811 Z M-342.5,1811 L-208.5,1811 C-204.910149,1811 -202,1813.91015 -202,1817.5 C-202,1821.08985 -204.910149,1824 -208.5,1824 L-342.5,1824 C-346.089851,1824 -349,1821.08985 -349,1817.5 C-349,1813.91015 -346.089851,1811 -342.5,1811 Z M352.5,1792 L377.5,1792 C381.089851,1792 384,1794.91015 384,1798.5 C384,1802.08985 381.089851,1805 377.5,1805 L352.5,1805 C348.910149,1805 346,1802.08985 346,1798.5 C346,1794.91015 348.910149,1792 352.5,1792 Z M381.5,1811 L394.5,1811 C398.089851,1811 401,1813.91015 401,1817.5 C401,1821.08985 398.089851,1824 394.5,1824 L381.5,1824 C377.910149,1824 375,1821.08985 375,1817.5 C375,1813.91015 377.910149,1811 381.5,1811 Z" opacity=".514" transform="translate(0 -1677)"/>
</svg>
