<svg xmlns="http://www.w3.org/2000/svg" width="116" height="47" viewBox="0 0 116 47">
  <g fill="#FFF" fill-rule="evenodd">
    <path d="M101.547851,0 L104.285888,0 C104.56203,-5.07265313e-17 104.785888,0.223857625 104.785888,0.5 C104.785888,0.776142375 104.56203,1 104.285888,1 L101.547851,1 C101.271708,1 101.047851,0.776142375 101.047851,0.5 C101.047851,0.223857625 101.271708,5.07265313e-17 101.547851,0 Z M110.892944,0 L112.696472,0 C112.972614,-5.07265313e-17 113.196472,0.223857625 113.196472,0.5 C113.196472,0.776142375 112.972614,1 112.696472,1 L110.892944,1 C110.616802,1 110.392944,0.776142375 110.392944,0.5 C110.392944,0.223857625 110.616802,5.07265313e-17 110.892944,0 Z M97.8098132,2 L115.5,2 C115.776142,2 116,2.22385763 116,2.5 C116,2.77614237 115.776142,3 115.5,3 L97.8098132,3 C97.5336708,3 97.3098132,2.77614237 97.3098132,2.5 C97.3098132,2.22385763 97.5336708,2 97.8098132,2 Z M95.9407945,4 L112.696472,4 C112.972614,4 113.196472,4.22385763 113.196472,4.5 C113.196472,4.77614237 112.972614,5 112.696472,5 L95.9407945,5 C95.6646521,5 95.4407945,4.77614237 95.4407945,4.5 C95.4407945,4.22385763 95.6646521,4 95.9407945,4 Z M94.0717758,6 L105.220397,6 C105.49654,6 105.720397,6.22385763 105.720397,6.5 C105.720397,6.77614237 105.49654,7 105.220397,7 L94.0717758,7 C93.7956334,7 93.5717758,6.77614237 93.5717758,6.5 C93.5717758,6.22385763 93.7956334,6 94.0717758,6 Z M47.3463088,6 L64.1019862,6 C64.3781286,6 64.6019862,6.22385763 64.6019862,6.5 C64.6019862,6.77614237 64.3781286,7 64.1019862,7 L47.3463088,7 C47.0701664,7 46.8463088,6.77614237 46.8463088,6.5 C46.8463088,6.22385763 47.0701664,6 47.3463088,6 Z M93.1372665,8 L107.089416,8 C107.365558,8 107.589416,8.22385763 107.589416,8.5 C107.589416,8.77614237 107.365558,9 107.089416,9 L93.1372665,9 C92.8611241,9 92.6372665,8.77614237 92.6372665,8.5 C92.6372665,8.22385763 92.8611241,8 93.1372665,8 Z M93.1372665,10 L108.023925,10 C108.300068,10 108.523925,10.2238576 108.523925,10.5 C108.523925,10.7761424 108.300068,11 108.023925,11 L93.1372665,11 C92.8611241,11 92.6372665,10.7761424 92.6372665,10.5 C92.6372665,10.2238576 92.8611241,10 93.1372665,10 Z M41.7392527,8 L77.185117,8 C77.4612594,8 77.685117,8.22385763 77.685117,8.5 C77.685117,8.77614237 77.4612594,9 77.185117,9 L41.7392527,9 C41.4631104,9 41.2392527,8.77614237 41.2392527,8.5 C41.2392527,8.22385763 41.4631104,8 41.7392527,8 Z M92.2027571,12 L109.892944,12 C110.169086,12 110.392944,12.2238576 110.392944,12.5 C110.392944,12.7761424 110.169086,13 109.892944,13 L92.2027571,13 C91.9266148,13 91.7027571,12.7761424 91.7027571,12.5 C91.7027571,12.2238576 91.9266148,12 92.2027571,12 Z M35.1976873,10 L81.8576637,10 C82.1338061,10 82.3576637,10.2238576 82.3576637,10.5 C82.3576637,10.7761424 82.1338061,11 81.8576637,11 L35.1976873,11 C34.921545,11 34.6976873,10.7761424 34.6976873,10.5 C34.6976873,10.2238576 34.921545,10 35.1976873,10 Z M34.263178,12 L83.7266824,12 C84.0028248,12 84.2266824,12.2238576 84.2266824,12.5 C84.2266824,12.7761424 84.0028248,13 83.7266824,13 L34.263178,13 C33.9870356,13 33.763178,12.7761424 33.763178,12.5 C33.763178,12.2238576 33.9870356,12 34.263178,12 Z M53.8878742,18 L96.8098132,18 C97.0859556,18 97.3098132,18.2238576 97.3098132,18.5 C97.3098132,18.7761424 97.0859556,19 96.8098132,19 L53.8878742,19 C53.6117318,19 53.3878742,18.7761424 53.3878742,18.5 C53.3878742,18.2238576 53.6117318,18 53.8878742,18 Z M7.16240711,18 L28.5906313,18 C28.8667737,18 29.0906313,18.2238576 29.0906313,18.5 C29.0906313,18.7761424 28.8667737,19 28.5906313,19 L7.16240711,19 C6.88626474,19 6.66240711,18.7761424 6.66240711,18.5 C6.66240711,18.2238576 6.88626474,18 7.16240711,18 Z M15.5729912,20 L22.9835752,20 C23.2597176,20 23.4835752,20.2238576 23.4835752,20.5 C23.4835752,20.7761424 23.2597176,21 22.9835752,21 L15.5729912,21 C15.2968488,21 15.0729912,20.7761424 15.0729912,20.5 C15.0729912,20.2238576 15.2968488,20 15.5729912,20 Z M5.29338843,16 L8.03142579,16 C8.30756817,16 8.53142579,16.2238576 8.53142579,16.5 C8.53142579,16.7761424 8.30756817,17 8.03142579,17 L5.29338843,17 C5.01724605,17 4.79338843,16.7761424 4.79338843,16.5 C4.79338843,16.2238576 5.01724605,16 5.29338843,16 Z M3.42436975,14 L5.22789777,14 C5.50404015,14 5.72789777,14.2238576 5.72789777,14.5 C5.72789777,14.7761424 5.50404015,15 5.22789777,15 L3.42436975,15 C3.14822737,15 2.92436975,14.7761424 2.92436975,14.5 C2.92436975,14.2238576 3.14822737,14 3.42436975,14 Z M55.7568928,20 L94.0062852,20 C94.2824275,20 94.5062852,20.2238576 94.5062852,20.5 C94.5062852,20.7761424 94.2824275,21 94.0062852,21 L55.7568928,21 C55.4807505,21 55.2568928,20.7761424 55.2568928,20.5 C55.2568928,20.2238576 55.4807505,20 55.7568928,20 Z M56.6914022,22 L91.2027571,22 C91.4788995,22 91.7027571,22.2238576 91.7027571,22.5 C91.7027571,22.7761424 91.4788995,23 91.2027571,23 L56.6914022,23 C56.4152598,23 56.1914022,22.7761424 56.1914022,22.5 C56.1914022,22.2238576 56.4152598,22 56.6914022,22 Z M55.7568928,24 L86.5302104,24 C86.8063528,24 87.0302104,24.2238576 87.0302104,24.5 C87.0302104,24.7761424 86.8063528,25 86.5302104,25 L55.7568928,25 C55.4807505,25 55.2568928,24.7761424 55.2568928,24.5 C55.2568928,24.2238576 55.4807505,24 55.7568928,24 Z M92.2027571,24 L95.8753038,24 C96.1514462,24 96.3753038,24.2238576 96.3753038,24.5 C96.3753038,24.7761424 96.1514462,25 95.8753038,25 L92.2027571,25 C91.9266148,25 91.7027571,24.7761424 91.7027571,24.5 C91.7027571,24.2238576 91.9266148,24 92.2027571,24 Z M104.351379,22 L107.089416,22 C107.365558,22 107.589416,22.2238576 107.589416,22.5 C107.589416,22.7761424 107.365558,23 107.089416,23 L104.351379,23 C104.075236,23 103.851379,22.7761424 103.851379,22.5 C103.851379,22.2238576 104.075236,22 104.351379,22 Z M83.7921731,26 L87.4647198,26 C87.7408621,26 87.9647198,26.2238576 87.9647198,26.5 C87.9647198,26.7761424 87.7408621,27 87.4647198,27 L83.7921731,27 C83.5160307,27 83.2921731,26.7761424 83.2921731,26.5 C83.2921731,26.2238576 83.5160307,26 83.7921731,26 Z M84.7266824,28 L88.3992291,28 C88.6753715,28 88.8992291,28.2238576 88.8992291,28.5 C88.8992291,28.7761424 88.6753715,29 88.3992291,29 L84.7266824,29 C84.45054,29 84.2266824,28.7761424 84.2266824,28.5 C84.2266824,28.2238576 84.45054,28 84.7266824,28 Z M52.9533648,26 L72.5125703,26 C72.7887127,26 73.0125703,26.2238576 73.0125703,26.5 C73.0125703,26.7761424 72.7887127,27 72.5125703,27 L52.9533648,27 C52.6772224,27 52.4533648,26.7761424 52.4533648,26.5 C52.4533648,26.2238576 52.6772224,26 52.9533648,26 Z M65.1019862,28 L67.8400236,28 C68.116166,28 68.3400236,28.2238576 68.3400236,28.5 C68.3400236,28.7761424 68.116166,29 67.8400236,29 L65.1019862,29 C64.8258439,29 64.6019862,28.7761424 64.6019862,28.5 C64.6019862,28.2238576 64.8258439,28 65.1019862,28 Z M47.3463088,28 L60.3639489,28 C60.6400913,28 60.8639489,28.2238576 60.8639489,28.5 C60.8639489,28.7761424 60.6400913,29 60.3639489,29 L47.3463088,29 C47.0701664,29 46.8463088,28.7761424 46.8463088,28.5 C46.8463088,28.2238576 47.0701664,28 47.3463088,28 Z M43.6082714,30 L59.4294395,30 C59.7055819,30 59.9294395,30.2238576 59.9294395,30.5 C59.9294395,30.7761424 59.7055819,31 59.4294395,31 L43.6082714,31 C43.332129,31 43.1082714,30.7761424 43.1082714,30.5 C43.1082714,30.2238576 43.332129,30 43.6082714,30 Z M38.0012154,32 L54.7568928,32 C55.0330352,32 55.2568928,32.2238576 55.2568928,32.5 C55.2568928,32.7761424 55.0330352,33 54.7568928,33 L38.0012154,33 C37.725073,33 37.5012154,32.7761424 37.5012154,32.5 C37.5012154,32.2238576 37.725073,32 38.0012154,32 Z M36.1321967,34 L39.8047434,34 C40.0808858,34 40.3047434,34.2238576 40.3047434,34.5 C40.3047434,34.7761424 40.0808858,35 39.8047434,35 L36.1321967,35 C35.8560543,35 35.6321967,34.7761424 35.6321967,34.5 C35.6321967,34.2238576 35.8560543,34 36.1321967,34 Z M34.263178,36 L37.9357247,36 C38.2118671,36 38.4357247,36.2238576 38.4357247,36.5 C38.4357247,36.7761424 38.2118671,37 37.9357247,37 L34.263178,37 C33.9870356,37 33.763178,36.7761424 33.763178,36.5 C33.763178,36.2238576 33.9870356,36 34.263178,36 Z M31.45965,38 L36.066706,38 C36.3428484,38 36.566706,38.2238576 36.566706,38.5 C36.566706,38.7761424 36.3428484,39 36.066706,39 L31.45965,39 C31.1835076,39 30.95965,38.7761424 30.95965,38.5 C30.95965,38.2238576 31.1835076,38 31.45965,38 Z M30.5251406,40 L34.1976873,40 C34.4738297,40 34.6976873,40.2238576 34.6976873,40.5 C34.6976873,40.7761424 34.4738297,41 34.1976873,41 L30.5251406,41 C30.2489983,41 30.0251406,40.7761424 30.0251406,40.5 C30.0251406,40.2238576 30.2489983,40 30.5251406,40 Z M31.45965,42 L37.0012154,42 C37.2773577,42 37.5012154,42.2238576 37.5012154,42.5 C37.5012154,42.7761424 37.2773577,43 37.0012154,43 L31.45965,43 C31.1835076,43 30.95965,42.7761424 30.95965,42.5 C30.95965,42.2238576 31.1835076,42 31.45965,42 Z M34.263178,44 L37.0012154,44 C37.2773577,44 37.5012154,44.2238576 37.5012154,44.5 C37.5012154,44.7761424 37.2773577,45 37.0012154,45 L34.263178,45 C33.9870356,45 33.763178,44.7761424 33.763178,44.5 C33.763178,44.2238576 33.9870356,44 34.263178,44 Z M39.870234,44 L41.6737621,44 C41.9499044,44 42.1737621,44.2238576 42.1737621,44.5 C42.1737621,44.7761424 41.9499044,45 41.6737621,45 L39.870234,45 C39.5940917,45 39.370234,44.7761424 39.370234,44.5 C39.370234,44.2238576 39.5940917,44 39.870234,44 Z M36.1321967,46 L39.8047434,46 C40.0808858,46 40.3047434,46.2238576 40.3047434,46.5 C40.3047434,46.7761424 40.0808858,47 39.8047434,47 L36.1321967,47 C35.8560543,47 35.6321967,46.7761424 35.6321967,46.5 C35.6321967,46.2238576 35.8560543,46 36.1321967,46 Z M66.9710049,30 L69.7090423,30 C69.9851847,30 70.2090423,30.2238576 70.2090423,30.5 C70.2090423,30.7761424 69.9851847,31 69.7090423,31 L66.9710049,31 C66.6948626,31 66.4710049,30.7761424 66.4710049,30.5 C66.4710049,30.2238576 66.6948626,30 66.9710049,30 Z M71.6435516,34 L73.4470797,34 C73.723222,34 73.9470797,34.2238576 73.9470797,34.5 C73.9470797,34.7761424 73.723222,35 73.4470797,35 L71.6435516,35 C71.3674093,35 71.1435516,34.7761424 71.1435516,34.5 C71.1435516,34.2238576 71.3674093,34 71.6435516,34 Z M68.8400236,32 L73.4470797,32 C73.723222,32 73.9470797,32.2238576 73.9470797,32.5 C73.9470797,32.7761424 73.723222,33 73.4470797,33 L68.8400236,33 C68.5638812,33 68.3400236,32.7761424 68.3400236,32.5 C68.3400236,32.2238576 68.5638812,32 68.8400236,32 Z M70.7090423,36 L72.5125703,36 C72.7887127,36 73.0125703,36.2238576 73.0125703,36.5 C73.0125703,36.7761424 72.7887127,37 72.5125703,37 L70.7090423,37 C70.4328999,37 70.2090423,36.7761424 70.2090423,36.5 C70.2090423,36.2238576 70.4328999,36 70.7090423,36 Z M85.6611917,30 L89.3337385,30 C89.6098808,30 89.8337385,30.2238576 89.8337385,30.5 C89.8337385,30.7761424 89.6098808,31 89.3337385,31 L85.6611917,31 C85.3850494,31 85.1611917,30.7761424 85.1611917,30.5 C85.1611917,30.2238576 85.3850494,30 85.6611917,30 Z M86.5957011,32 L94.9407945,32 C95.2169369,32 95.4407945,32.2238576 95.4407945,32.5 C95.4407945,32.7761424 95.2169369,33 94.9407945,33 L86.5957011,33 C86.3195587,33 86.0957011,32.7761424 86.0957011,32.5 C86.0957011,32.2238576 86.3195587,32 86.5957011,32 Z M94.0717758,26 L102.416869,26 C102.693012,26 102.916869,26.2238576 102.916869,26.5 C102.916869,26.7761424 102.693012,27 102.416869,27 L94.0717758,27 C93.7956334,27 93.5717758,26.7761424 93.5717758,26.5 C93.5717758,26.2238576 93.7956334,26 94.0717758,26 Z M94.0717758,30 L95.8753038,30 C96.1514462,30 96.3753038,30.2238576 96.3753038,30.5 C96.3753038,30.7761424 96.1514462,31 95.8753038,31 L94.0717758,31 C93.7956334,31 93.5717758,30.7761424 93.5717758,30.5 C93.5717758,30.2238576 93.7956334,30 94.0717758,30 Z M95.9407945,28 L97.7443225,28 C98.0204649,28 98.2443225,28.2238576 98.2443225,28.5 C98.2443225,28.7761424 98.0204649,29 97.7443225,29 L95.9407945,29 C95.6646521,29 95.4407945,28.7761424 95.4407945,28.5 C95.4407945,28.2238576 95.6646521,28 95.9407945,28 Z M97.8098132,30 L99.6133412,30 C99.8894836,30 100.113341,30.2238576 100.113341,30.5 C100.113341,30.7761424 99.8894836,31 99.6133412,31 L97.8098132,31 C97.5336708,31 97.3098132,30.7761424 97.3098132,30.5 C97.3098132,30.2238576 97.5336708,30 97.8098132,30 Z M72.578061,38 L73.4470797,38 C73.723222,38 73.9470797,38.2238576 73.9470797,38.5 C73.9470797,38.7761424 73.723222,39 73.4470797,39 L72.578061,39 C72.3019186,39 72.078061,38.7761424 72.078061,38.5 C72.078061,38.2238576 72.3019186,38 72.578061,38 Z M100.613341,24 L104.285888,24 C104.56203,24 104.785888,24.2238576 104.785888,24.5 C104.785888,24.7761424 104.56203,25 104.285888,25 L100.613341,25 C100.337199,25 100.113341,24.7761424 100.113341,24.5 C100.113341,24.2238576 100.337199,24 100.613341,24 Z M106.220397,24 L108.023925,24 C108.300068,24 108.523925,24.2238576 108.523925,24.5 C108.523925,24.7761424 108.300068,25 108.023925,25 L106.220397,25 C105.944255,25 105.720397,24.7761424 105.720397,24.5 C105.720397,24.2238576 105.944255,24 106.220397,24 Z M30.5251406,14 L100.547851,14 C100.823993,14 101.047851,14.2238576 101.047851,14.5 C101.047851,14.7761424 100.823993,15 100.547851,15 L30.5251406,15 C30.2489983,15 30.0251406,14.7761424 30.0251406,14.5 C30.0251406,14.2238576 30.2489983,14 30.5251406,14 Z M51.0843461,16 L99.6133412,16 C99.8894836,16 100.113341,16.2238576 100.113341,16.5 C100.113341,16.7761424 99.8894836,17 99.6133412,17 L51.0843461,17 C50.8082038,17 50.5843461,16.7761424 50.5843461,16.5 C50.5843461,16.2238576 50.8082038,16 51.0843461,16 Z M24.9180846,16 L41.6737621,16 C41.9499044,16 42.1737621,16.2238576 42.1737621,16.5 C42.1737621,16.7761424 41.9499044,17 41.6737621,17 L24.9180846,17 C24.6419422,17 24.4180846,16.7761424 24.4180846,16.5 C24.4180846,16.2238576 24.6419422,16 24.9180846,16 Z M109.023925,14 L112.696472,14 C112.972614,14 113.196472,14.2238576 113.196472,14.5 C113.196472,14.7761424 112.972614,15 112.696472,15 L109.023925,15 C108.747783,15 108.523925,14.7761424 108.523925,14.5 C108.523925,14.2238576 108.747783,14 109.023925,14 Z M111.827453,16 L113.630981,16 C113.907124,16 114.130981,16.2238576 114.130981,16.5 C114.130981,16.7761424 113.907124,17 113.630981,17 L111.827453,17 C111.551311,17 111.327453,16.7761424 111.327453,16.5 C111.327453,16.2238576 111.551311,16 111.827453,16 Z"/>
    <rect width="13.896" height="1" x="8.773" y="41" rx=".5"/>
    <rect width="17.553" height="1" y="45" rx=".5"/>
  </g>
</svg>
