<svg xmlns="http://www.w3.org/2000/svg" width="715" height="229" viewBox="0 0 715 229">
  <defs>
    <linearGradient id="logo-velocirender-a" x1="104.878%" x2="1.784%" y1="26.272%" y2="87.046%">
      <stop offset="0%" stop-color="#3023AE"/>
      <stop offset="47.525%" stop-color="#53A0FD"/>
      <stop offset="100%" stop-color="#B4EC51"/>
    </linearGradient>
  </defs>
  <g fill="none" fill-rule="evenodd" transform="translate(1 1)">
    <path fill="url(#logo-velocirender-a)" stroke="#FFF" stroke-width="2" d="M530.5,0 L540.5,0 C542.432997,-3.55085719e-16 544,1.56700338 544,3.5 C544,5.43299662 542.432997,7 540.5,7 L530.5,7 C528.567003,7 527,5.43299662 527,3.5 C527,1.56700338 528.567003,3.55085719e-16 530.5,0 Z M570.5,0 L581.5,0 C583.432997,-3.55085719e-16 585,1.56700338 585,3.5 C585,5.43299662 583.432997,7 581.5,7 L570.5,7 C568.567003,7 567,5.43299662 567,3.5 C567,1.56700338 568.567003,3.55085719e-16 570.5,0 Z M513.5,10 L588.5,10 C590.432997,10 592,11.5670034 592,13.5 C592,15.4329966 590.432997,17 588.5,17 L513.5,17 C511.567003,17 510,15.4329966 510,13.5 C510,11.5670034 511.567003,10 513.5,10 Z M504.5,20 L574.5,20 C576.432997,20 578,21.5670034 578,23.5 C578,25.4329966 576.432997,27 574.5,27 L504.5,27 C502.567003,27 501,25.4329966 501,23.5 C501,21.5670034 502.567003,20 504.5,20 Z M498.5,30 L545.5,30 C547.432997,30 549,31.5670034 549,33.5 C549,35.4329966 547.432997,37 545.5,37 L498.5,37 C496.567003,37 495,35.4329966 495,33.5 C495,31.5670034 496.567003,30 498.5,30 Z M291.5,30 L361.5,30 C363.432997,30 365,31.5670034 365,33.5 C365,35.4329966 363.432997,37 361.5,37 L291.5,37 C289.567003,37 288,35.4329966 288,33.5 C288,31.5670034 289.567003,30 291.5,30 Z M494.5,40 L553.5,40 C555.432997,40 557,41.5670034 557,43.5 C557,45.4329966 555.432997,47 553.5,47 L494.5,47 C492.567003,47 491,45.4329966 491,43.5 C491,41.5670034 492.567003,40 494.5,40 Z M268.5,40 L420.5,40 C422.432997,40 424,41.5670034 424,43.5 C424,45.4329966 422.432997,47 420.5,47 L268.5,47 C266.567003,47 265,45.4329966 265,43.5 C265,41.5670034 266.567003,40 268.5,40 Z M490.5,50 L565.5,50 C567.432997,50 569,51.5670034 569,53.5 C569,55.4329966 567.432997,57 565.5,57 L490.5,57 C488.567003,57 487,55.4329966 487,53.5 C487,51.5670034 488.567003,50 490.5,50 Z M240.5,50 L443.5,50 C445.432997,50 447,51.5670034 447,53.5 C447,55.4329966 445.432997,57 443.5,57 L240.5,57 C238.567003,57 237,55.4329966 237,53.5 C237,51.5670034 238.567003,50 240.5,50 Z M322.5,80 L506.5,80 C508.432997,80 510,81.5670034 510,83.5 C510,85.4329966 508.432997,87 506.5,87 L322.5,87 C320.567003,87 319,85.4329966 319,83.5 C319,81.5670034 320.567003,80 322.5,80 Z M117.5,80 L207.5,80 C209.432997,80 211,81.5670034 211,83.5 C211,85.4329966 209.432997,87 207.5,87 L117.5,87 C115.567003,87 114,85.4329966 114,83.5 C114,81.5670034 115.567003,80 117.5,80 Z M154.5,90 L182.5,90 C184.432997,90 186,91.5670034 186,93.5 C186,95.4329966 184.432997,97 182.5,97 L154.5,97 C152.567003,97 151,95.4329966 151,93.5 C151,91.5670034 152.567003,90 154.5,90 Z M104.5,68 L115.5,68 C117.432997,68 119,69.5670034 119,71.5 C119,73.4329966 117.432997,75 115.5,75 L104.5,75 C102.567003,75 101,73.4329966 101,71.5 C101,69.5670034 102.567003,68 104.5,68 Z M92.5,58 L97.5,58 C99.4329966,58 101,59.5670034 101,61.5 C101,63.4329966 99.4329966,65 97.5,65 L92.5,65 C90.5670034,65 89,63.4329966 89,61.5 C89,59.5670034 90.5670034,58 92.5,58 Z M328.5,90 L491.5,90 C493.432997,90 495,91.5670034 495,93.5 C495,95.4329966 493.432997,97 491.5,97 L328.5,97 C326.567003,97 325,95.4329966 325,93.5 C325,91.5670034 326.567003,90 328.5,90 Z M332.5,100 L479.5,100 C481.432997,100 483,101.567003 483,103.5 C483,105.432997 481.432997,107 479.5,107 L332.5,107 C330.567003,107 329,105.432997 329,103.5 C329,101.567003 330.567003,100 332.5,100 Z M330.5,110 L463.5,110 C465.432997,110 467,111.567003 467,113.5 C467,115.432997 465.432997,117 463.5,117 L330.5,117 C328.567003,117 327,115.432997 327,113.5 C327,111.567003 328.567003,110 330.5,110 Z M490.5,100 L503.5,100 C505.432997,100 507,101.567003 507,103.5 C507,105.432997 505.432997,107 503.5,107 L490.5,107 C488.567003,107 487,105.432997 487,103.5 C487,101.567003 488.567003,100 490.5,100 Z M540.5,90 L551.5,90 C553.432997,90 555,91.5670034 555,93.5 C555,95.4329966 553.432997,97 551.5,97 L540.5,97 C538.567003,97 537,95.4329966 537,93.5 C537,91.5670034 538.567003,90 540.5,90 Z M453.5,120 L466.5,120 C468.432997,120 470,121.567003 470,123.5 C470,125.432997 468.432997,127 466.5,127 L453.5,127 C451.567003,127 450,125.432997 450,123.5 C450,121.567003 451.567003,120 453.5,120 Z M316.5,120 L397.5,120 C399.432997,120 401,121.567003 401,123.5 C401,125.432997 399.432997,127 397.5,127 L316.5,127 C314.567003,127 313,125.432997 313,123.5 C313,121.567003 314.567003,120 316.5,120 Z M369.5,130 L380.5,130 C382.432997,130 384,131.567003 384,133.5 C384,135.432997 382.432997,137 380.5,137 L369.5,137 C367.567003,137 366,135.432997 366,133.5 C366,131.567003 367.567003,130 369.5,130 Z M294.5,130 L349.5,130 C351.432997,130 353,131.567003 353,133.5 C353,135.432997 351.432997,137 349.5,137 L294.5,137 C292.567003,137 291,135.432997 291,133.5 C291,131.567003 292.567003,130 294.5,130 Z M276.5,140 L341.5,140 C343.432997,140 345,141.567003 345,143.5 C345,145.432997 343.432997,147 341.5,147 L276.5,147 C274.567003,147 273,145.432997 273,143.5 C273,141.567003 274.567003,140 276.5,140 Z M253.5,150 L323.5,150 C325.432997,150 327,151.567003 327,153.5 C327,155.432997 325.432997,157 323.5,157 L253.5,157 C251.567003,157 250,155.432997 250,153.5 C250,151.567003 251.567003,150 253.5,150 Z M243.5,160 L256.5,160 C258.432997,160 260,161.567003 260,163.5 C260,165.432997 258.432997,167 256.5,167 L243.5,167 C241.567003,167 240,165.432997 240,163.5 C240,161.567003 241.567003,160 243.5,160 Z M234.5,170 L249.5,170 C251.432997,170 253,171.567003 253,173.5 C253,175.432997 251.432997,177 249.5,177 L234.5,177 C232.567003,177 231,175.432997 231,173.5 C231,171.567003 232.567003,170 234.5,170 Z M223.5,180 L240.5,180 C242.432997,180 244,181.567003 244,183.5 C244,185.432997 242.432997,187 240.5,187 L223.5,187 C221.567003,187 220,185.432997 220,183.5 C220,181.567003 221.567003,180 223.5,180 Z M217.5,190 L230.5,190 C232.432997,190 234,191.567003 234,193.5 C234,195.432997 232.432997,197 230.5,197 L217.5,197 C215.567003,197 214,195.432997 214,193.5 C214,191.567003 215.567003,190 217.5,190 Z M221.5,200 L241.5,200 C243.432997,200 245,201.567003 245,203.5 C245,205.432997 243.432997,207 241.5,207 L221.5,207 C219.567003,207 218,205.432997 218,203.5 C218,201.567003 219.567003,200 221.5,200 Z M80.5,186 L165.5,186 C167.432997,186 169,187.567003 169,189.5 C169,191.432997 167.432997,193 165.5,193 L80.5,193 C78.5670034,193 77,191.432997 77,189.5 C77,187.567003 78.5670034,186 80.5,186 Z M693.5,197 L709.5,197 C711.432997,197 713,198.567003 713,200.5 C713,202.432997 711.432997,204 709.5,204 L693.5,204 C691.567003,204 690,202.432997 690,200.5 C690,198.567003 691.567003,197 693.5,197 Z M3.5,199 L117.5,199 C119.432997,199 121,200.567003 121,202.5 C121,204.432997 119.432997,206 117.5,206 L3.5,206 C1.56700338,206 2.36723813e-16,204.432997 0,202.5 C-2.36723813e-16,200.567003 1.56700338,199 3.5,199 Z M674.5,210 L697.5,210 C699.432997,210 701,211.567003 701,213.5 C701,215.432997 699.432997,217 697.5,217 L674.5,217 C672.567003,217 671,215.432997 671,213.5 C671,211.567003 672.567003,210 674.5,210 Z M234.5,210 L245.5,210 C247.432997,210 249,211.567003 249,213.5 C249,215.432997 247.432997,217 245.5,217 L234.5,217 C232.567003,217 231,215.432997 231,213.5 C231,211.567003 232.567003,210 234.5,210 Z M258.5,210 L263.5,210 C265.432997,210 267,211.567003 267,213.5 C267,215.432997 265.432997,217 263.5,217 L258.5,217 C256.567003,217 255,215.432997 255,213.5 C255,211.567003 256.567003,210 258.5,210 Z M242.5,220 L257.5,220 C259.432997,220 261,221.567003 261,223.5 C261,225.432997 259.432997,227 257.5,227 L242.5,227 C240.567003,227 239,225.432997 239,223.5 C239,221.567003 240.567003,220 242.5,220 Z M378.5,140 L389.5,140 C391.432997,140 393,141.567003 393,143.5 C393,145.432997 391.432997,147 389.5,147 L378.5,147 C376.567003,147 375,145.432997 375,143.5 C375,141.567003 376.567003,140 378.5,140 Z M397.5,160 L404.5,160 C406.432997,160 408,161.567003 408,163.5 C408,165.432997 406.432997,167 404.5,167 L397.5,167 C395.567003,167 394,165.432997 394,163.5 C394,161.567003 395.567003,160 397.5,160 Z M387.5,150 L404.5,150 C406.432997,150 408,151.567003 408,153.5 C408,155.432997 406.432997,157 404.5,157 L387.5,157 C385.567003,157 384,155.432997 384,153.5 C384,151.567003 385.567003,150 387.5,150 Z M394.5,170 L399.5,170 C401.432997,170 403,171.567003 403,173.5 C403,175.432997 401.432997,177 399.5,177 L394.5,177 C392.567003,177 391,175.432997 391,173.5 C391,171.567003 392.567003,170 394.5,170 Z M459.5,130 L472.5,130 C474.432997,130 476,131.567003 476,133.5 C476,135.432997 474.432997,137 472.5,137 L459.5,137 C457.567003,137 456,135.432997 456,133.5 C456,131.567003 457.567003,130 459.5,130 Z M466.5,140 L501.5,140 C503.432997,140 505,141.567003 505,143.5 C505,145.432997 503.432997,147 501.5,147 L466.5,147 C464.567003,147 463,145.432997 463,143.5 C463,141.567003 464.567003,140 466.5,140 Z M498.5,110 L533.5,110 C535.432997,110 537,111.567003 537,113.5 C537,115.432997 535.432997,117 533.5,117 L498.5,117 C496.567003,117 495,115.432997 495,113.5 C495,111.567003 496.567003,110 498.5,110 Z M500.5,130 L505.5,130 C507.432997,130 509,131.567003 509,133.5 C509,135.432997 507.432997,137 505.5,137 L500.5,137 C498.567003,137 497,135.432997 497,133.5 C497,131.567003 498.567003,130 500.5,130 Z M507.5,120 L512.5,120 C514.432997,120 516,121.567003 516,123.5 C516,125.432997 514.432997,127 512.5,127 L507.5,127 C505.567003,127 504,125.432997 504,123.5 C504,121.567003 505.567003,120 507.5,120 Z M515.5,130 L520.5,130 C522.432997,130 524,131.567003 524,133.5 C524,135.432997 522.432997,137 520.5,137 L515.5,137 C513.567003,137 512,135.432997 512,133.5 C512,131.567003 513.567003,130 515.5,130 Z M403.5,179 L404.5,179 C406.432997,179 408,180.567003 408,182.5 C408,184.432997 406.432997,186 404.5,186 L403.5,186 C401.567003,186 400,184.432997 400,182.5 C400,180.567003 401.567003,179 403.5,179 Z M527.5,100 L540.5,100 C542.432997,100 544,101.567003 544,103.5 C544,105.432997 542.432997,107 540.5,107 L527.5,107 C525.567003,107 524,105.432997 524,103.5 C524,101.567003 525.567003,100 527.5,100 Z M551.5,100 L558.5,100 C560.432997,100 562,101.567003 562,103.5 C562,105.432997 560.432997,107 558.5,107 L551.5,107 C549.567003,107 548,105.432997 548,103.5 C548,101.567003 549.567003,100 551.5,100 Z M219.5,60 L524.5,60 C526.432997,60 528,61.5670034 528,63.5 C528,65.4329966 526.432997,67 524.5,67 L219.5,67 C217.567003,67 216,65.4329966 216,63.5 C216,61.5670034 217.567003,60 219.5,60 Z M309.5,70 L517.5,70 C519.432997,70 521,71.5670034 521,73.5 C521,75.4329966 519.432997,77 517.5,77 L309.5,77 C307.567003,77 306,75.4329966 306,73.5 C306,71.5670034 307.567003,70 309.5,70 Z M196.5,70 L266.5,70 C268.432997,70 270,71.5670034 270,73.5 C270,75.4329966 268.432997,77 266.5,77 L196.5,77 C194.567003,77 193,75.4329966 193,73.5 C193,71.5670034 194.567003,70 196.5,70 Z M561.5,60 L574.5,60 C576.432997,60 578,61.5670034 578,63.5 C578,65.4329966 576.432997,67 574.5,67 L561.5,67 C559.567003,67 558,65.4329966 558,63.5 C558,61.5670034 559.567003,60 561.5,60 Z M576.5,70 L583.5,70 C585.432997,70 587,71.5670034 587,73.5 C587,75.4329966 585.432997,77 583.5,77 L576.5,77 C574.567003,77 573,75.4329966 573,73.5 C573,71.5670034 574.567003,70 576.5,70 Z"/>
    <path fill="#3E3D3D" d="M446.968,196.268 L449.488,196.268 L438.58,221 L436.06,221 L425.152,196.268 L427.672,196.268 L437.32,218.156 L446.968,196.268 Z M459.284,219.38 C461.624,219.38 464.18,218.444 465.476,217.04 L466.88,218.552 C465.296,220.28 462.02,221.432 459.284,221.432 C454.316,221.432 449.96,217.22 449.96,211.64 C449.96,206.132 454.1,201.956 459.14,201.956 C464.648,201.956 467.96,206.168 467.96,212.576 L452.228,212.576 C452.624,216.428 455.468,219.38 459.284,219.38 Z M459.212,204.008 C455.576,204.008 452.732,206.672 452.264,210.524 L465.728,210.524 C465.44,206.78 463.136,204.008 459.212,204.008 Z M472.428,221 L472.428,195.836 L474.66,195.836 L474.66,221 L472.428,221 Z M488.812,221.432 C483.592,221.432 479.164,216.968 479.164,211.676 C479.164,206.384 483.592,201.956 488.812,201.956 C494.032,201.956 498.424,206.384 498.424,211.676 C498.424,216.968 494.032,221.432 488.812,221.432 Z M488.812,219.38 C492.772,219.38 496.084,215.888 496.084,211.676 C496.084,207.5 492.772,204.008 488.812,204.008 C484.816,204.008 481.504,207.5 481.504,211.676 C481.504,215.888 484.816,219.38 488.812,219.38 Z M511.46,221.432 C506.168,221.432 501.92,217.112 501.92,211.676 C501.92,206.24 506.168,201.956 511.46,201.956 C513.944,201.956 516.248,203 517.976,204.692 L516.428,206.204 C515.132,204.836 513.368,204.008 511.46,204.008 C507.428,204.008 504.26,207.392 504.26,211.676 C504.26,215.996 507.428,219.38 511.46,219.38 C513.404,219.38 515.204,218.516 516.5,217.112 L518.048,218.624 C516.32,220.352 513.98,221.432 511.46,221.432 Z M523.308,198.752 C522.444,198.752 521.76,198.068 521.76,197.204 C521.76,196.376 522.444,195.656 523.308,195.656 C524.172,195.656 524.856,196.376 524.856,197.204 C524.856,198.068 524.172,198.752 523.308,198.752 Z M522.192,221 L522.192,202.388 L524.424,202.388 L524.424,221 L522.192,221 Z M532.384,206.204 C533.428,203.684 536.164,201.956 539.584,201.956 L539.584,204.008 C535.372,204.008 532.384,206.744 532.384,210.596 L532.384,221 L530.152,221 L530.152,202.388 L532.384,202.388 L532.384,206.204 Z M551.684,219.38 C554.024,219.38 556.58,218.444 557.876,217.04 L559.28,218.552 C557.696,220.28 554.42,221.432 551.684,221.432 C546.716,221.432 542.36,217.22 542.36,211.64 C542.36,206.132 546.5,201.956 551.54,201.956 C557.048,201.956 560.36,206.168 560.36,212.576 L544.628,212.576 C545.024,216.428 547.868,219.38 551.684,219.38 Z M551.612,204.008 C547.976,204.008 545.132,206.672 544.664,210.524 L558.128,210.524 C557.84,206.78 555.536,204.008 551.612,204.008 Z M573.216,201.956 C577.32,201.956 580.2,204.908 580.2,209.048 L580.2,221 L577.968,221 L577.968,209.336 C577.968,206.204 575.88,204.008 572.928,204.008 C569.652,204.008 567.096,206.276 567.096,209.156 L567.096,221 L564.864,221 L564.864,202.388 L567.096,202.388 L567.096,205.448 C568.104,203.396 570.48,201.956 573.216,201.956 Z M600.364,195.836 L602.596,195.836 L602.596,221 L600.364,221 L600.364,217.364 C598.924,219.884 596.476,221.432 593.416,221.432 C588.628,221.432 584.92,217.256 584.92,211.676 C584.92,206.132 588.628,201.956 593.416,201.956 C596.476,201.956 598.924,203.504 600.364,206.024 L600.364,195.836 Z M593.812,219.38 C597.664,219.38 600.364,216.176 600.364,211.676 C600.364,207.176 597.664,204.008 593.812,204.008 C590.068,204.008 587.224,207.284 587.224,211.676 C587.224,216.068 590.068,219.38 593.812,219.38 Z M616.676,219.38 C619.016,219.38 621.572,218.444 622.868,217.04 L624.272,218.552 C622.688,220.28 619.412,221.432 616.676,221.432 C611.708,221.432 607.352,217.22 607.352,211.64 C607.352,206.132 611.492,201.956 616.532,201.956 C622.04,201.956 625.352,206.168 625.352,212.576 L609.62,212.576 C610.016,216.428 612.86,219.38 616.676,219.38 Z M616.604,204.008 C612.968,204.008 610.124,206.672 609.656,210.524 L623.12,210.524 C622.832,206.78 620.528,204.008 616.604,204.008 Z M632.304,206.204 C633.348,203.684 636.084,201.956 639.504,201.956 L639.504,204.008 C635.292,204.008 632.304,206.744 632.304,210.596 L632.304,221 L630.072,221 L630.072,202.388 L632.304,202.388 L632.304,206.204 Z"/>
  </g>
</svg>
